PathFileType	4	(X/Y/Z)	/Users/itak/Documents/Research/Walk-IL/dataset/trc/00567_00009.trc
DataRate	CameraRate	NumFrames	NumMarkers	Units	OrigDataRate	OrigDataStartFrame	OrigNumFrames
100.000000	100.000000	4	53	mm	100.000000	111	447
Frame#	Time	RPSI			LPSI			L3			STRN			T10			C7			CLAV			RBAK			LBAK			LSHO			LUPA			LAEL			LAOL			LWTS			LWPS			LFRA			LHPS			LHTS			RSHO			RUPA			RAEL			RAOL			RWTS			RWPS			RFRA			RIFD			RHTS			RHPS			RBHD			LFHD			RFHD			LBHD			LHIP			RHIP			RASI			LASI			LKNE			LTHI			LANK			LTIP			LTOE			LMT1			LMT5			LHEE			RKNE			RTHI			RANK			RTIP			RTOE			RMT1			RMT5			RHEE			LIFD			
		X1	Y1	Z1	X2	Y2	Z2	X3	Y3	Z3	X4	Y4	Z4	X5	Y5	Z5	X6	Y6	Z6	X7	Y7	Z7	X8	Y8	Z8	X9	Y9	Z9	X10	Y10	Z10	X11	Y11	Z11	X12	Y12	Z12	X13	Y13	Z13	X14	Y14	Z14	X15	Y15	Z15	X16	Y16	Z16	X17	Y17	Z17	X18	Y18	Z18	X19	Y19	Z19	X20	Y20	Z20	X21	Y21	Z21	X22	Y22	Z22	X23	Y23	Z23	X24	Y24	Z24	X25	Y25	Z25	X26	Y26	Z26	X27	Y27	Z27	X28	Y28	Z28	X29	Y29	Z29	X30	Y30	Z30	X31	Y31	Z31	X32	Y32	Z32	X33	Y33	Z33	X34	Y34	Z34	X35	Y35	Z35	X36	Y36	Z36	X37	Y37	Z37	X38	Y38	Z38	X39	Y39	Z39	X40	Y40	Z40	X41	Y41	Z41	X42	Y42	Z42	X43	Y43	Z43	X44	Y44	Z44	X45	Y45	Z45	X46	Y46	Z46	X47	Y47	Z47	X48	Y48	Z48	X49	Y49	Z49	X50	Y50	Z50	X51	Y51	Z51	X52	Y52	Z52	X53	Y53	Z53	

112	1.11	-718.3325805664062	996.45751953125	-119.0895156860352	-679.546142578125	995.0845947265625	-247.3163909912109	-687.7581176757812	1101.411743164062	-184.3296813964844	-445.9990844726562	1271.55615234375	-128.2131805419922	-685.5158081054688	1226.415771484375	-186.9131317138672	-618.1427001953125	1496.974731445312	-160.5206298828125	-454.7720947265625	1383.005615234375	-131.5188903808594	-717.823486328125	1379.82275390625	-92.58328247070312	-634.6810302734375	1445.876708984375	-258.1243591308594	-518.2320556640625	1459.601440429688	-316.6309204101562	-516.2384033203125	1333.102172851562	-396.4532470703125	-497.9745178222656	1111.985595703125	-418.7453002929688	-594.0537719726562	1104.625854492188	-386.1520080566406	-416.1290588378906	871.4111938476562	-356.4915161132812	-445.894287109375	848.2476196289062	-434.6373901367188	-475.0395812988281	1026.769409179688	-422.3992309570312	-438.9009094238281	788.6163940429688	-425.7117614746094	-395.7033386230469	794.2723999023438	-373.6693725585938	-598.5774536132812	1457.199340820312	4.497177600860596	-634.8558349609375	1395.673950195312	68.25904083251953	-665.5512084960938	1108.438110351562	115.0327377319336	-712.7816162109375	1090.321411132812	77.66017913818359	-517.111572265625	893.87548828125	108.9931335449219	-575.8296508789062	870.7376708984375	163.9344024658203	-655.8995971679688	1052.564331054688	124.6992111206055	-500.6958618164062	721.5535888671875	114.0499801635742	-489.2160339355469	803.8400268554688	131.3426361083984	-554.9904174804688	797.621337890625	165.7545318603516	-540.0104370117188	1668.734375	-77.08331298828125	-343.8573303222656	1669.459716796875	-145.642578125	-412.8601684570312	1665.794799804688	-18.58745574951172	-455.7423095703125	1669.8720703125	-219.1649017333984	-517.551025390625	917.259521484375	-334.0753173828125	-627.87451171875	927.6895751953125	31.57487869262695	-530.0670776367188	963.4339599609375	-0.723350465297699	-455.5396423339844	949.3434448242188	-268.09716796875	-402.8699340820312	481.898681640625	-278.4275817871094	-432.7523498535156	650.5107421875	-306.9458618164062	-789.1477661132812	198.3876495361328	-392.0279235839844	-606.013427734375	339.4364624023438	-344.2236022949219	-653.3998413085938	55.00887298583984	-313.7140808105469	-708.5113525390625	102.7106704711914	-286.2364807128906	-708.2725219726562	109.6738815307617	-392.0092163085938	-839.0062866210938	251.3493194580078	-345.6491088867188	-507.2522583007812	494.2072448730469	-26.84887313842773	-565.7781982421875	776.572998046875	34.80373382568359	-595.373779296875	38.05909729003906	-114.8486480712891	-499.9657592773438	348.3002014160156	-52.70935440063477	-373.1695556640625	39.86520767211914	-82.86254119873047	-422.1758117675781	33.80649566650391	-141.2423400878906	-476.7457275390625	44.16593170166016	-55.51110076904297	-630.2236328125	25.72146034240723	-181.7009582519531	-413.2807006835938	707.6602783203125	-362.8145751953125	
113	1.12	-711.9390869140625	996.9119262695312	-116.9058609008789	-672.5886840820312	995.5174560546875	-244.9756774902344	-681.513427734375	1101.963989257812	-181.7687377929688	-439.4142761230469	1272.209106445312	-124.9192352294922	-678.8252563476562	1226.978637695312	-184.0747375488281	-611.5123291015625	1497.510620117188	-157.5729675292969	-448.1808776855469	1383.602783203125	-128.4012603759766	-711.22607421875	1380.43505859375	-89.59851837158203	-628.0318603515625	1446.369018554688	-255.1434326171875	-511.6319580078125	1459.989990234375	-313.62451171875	-509.6405944824219	1333.514526367188	-393.3981018066406	-491.0833740234375	1112.379638671875	-415.701904296875	-587.1256103515625	1104.760009765625	-382.8803405761719	-407.0701293945312	873.030517578125	-352.9475402832031	-437.1753540039062	849.077392578125	-430.7716979980469	-467.6265869140625	1027.451416015625	-419.2162780761719	-429.53564453125	789.5667724609375	-421.5797119140625	-386.0701293945312	795.9454345703125	-369.845947265625	-592.0445556640625	1458.023559570312	7.400647163391113	-628.23681640625	1396.644165039062	71.30307006835938	-657.9576416015625	1109.472534179688	119.0174026489258	-705.2217407226562	1091.0185546875	81.85381317138672	-507.672607421875	896.394775390625	113.2356567382812	-565.9673461914062	872.8009643554688	168.3577575683594	-647.9425659179688	1053.67919921875	128.83740234375	-489.4628295898438	724.30908203125	118.7880554199219	-478.8429565429688	806.7249755859375	135.8836212158203	-544.4114990234375	799.9338989257812	170.3389129638672	-533.2164916992188	1669.3955078125	-74.43135833740234	-336.7562866210938	1669.564453125	-142.0045623779297	-406.3055725097656	1666.083129882812	-15.31842803955078	-448.2524719238281	1670.263549804688	-216.1078948974609	-509.2965393066406	918.478759765625	-330.7030639648438	-622.667724609375	927.7556762695312	34.25663375854492	-524.5518188476562	963.6701049804688	2.916160821914673	-448.43212890625	950.504638671875	-263.9559936523438	-385.8191833496094	485.7716064453125	-270.5747375488281	-419.3523864746094	653.3583984375	-301.2681274414062	-763.7786865234375	193.3204650878906	-387.2915344238281	-585.0457763671875	338.8795166015625	-338.0260009765625	-623.8668212890625	55.13805770874023	-307.5767822265625	-681.049072265625	100.5370864868164	-280.6574401855469	-679.654052734375	107.6693878173828	-386.4309387207031	-816.0863037109375	244.3912658691406	-341.4972229003906	-505.2254943847656	493.5793151855469	-25.61823463439941	-561.5471801757812	776.2401733398438	37.20814895629883	-595.376220703125	38.09878921508789	-114.9265975952148	-498.7401733398438	347.7534790039062	-52.03385925292969	-373.1561889648438	39.86699676513672	-82.88626861572266	-422.1998291015625	33.75056838989258	-141.29736328125	-476.7457275390625	44.18579864501953	-55.55262756347656	-630.2184448242188	25.71586799621582	-181.7473907470703	-402.4156188964844	709.357177734375	-358.4660949707031	
114	1.13	-705.5054931640625	997.3375854492188	-114.7823257446289	-665.537841796875	995.945556640625	-242.6759796142578	-675.1910400390625	1102.451049804688	-179.2682342529297	-432.8196411132812	1272.831298828125	-121.5662994384766	-672.1555786132812	1227.496459960938	-181.2651214599609	-604.8853759765625	1497.99609375	-154.63427734375	-441.5993041992188	1384.167114257812	-125.2312316894531	-704.6498413085938	1380.979370117188	-86.64702606201172	-621.3533325195312	1446.809204101562	-252.1727752685547	-504.9697570800781	1460.346313476562	-310.5885009765625	-502.9748229980469	1333.892822265625	-390.3150024414062	-484.1629028320312	1112.755493164062	-412.6417846679688	-580.1705932617188	1104.882080078125	-379.6268920898438	-398.0515441894531	874.615966796875	-349.3582153320312	-428.4766845703125	849.8753662109375	-426.8760986328125	-460.1912841796875	1028.103393554688	-416.0036926269531	-420.222900390625	790.4917602539062	-417.4143371582031	-376.5171508789062	797.5770874023438	-365.9656372070312	-585.5774536132812	1458.788940429688	10.30519199371338	-621.7152099609375	1397.542724609375	74.33104705810547	-650.4766845703125	1110.429443359375	122.8806076049805	-697.7706298828125	1091.650390625	85.90645599365234	-498.3998107910156	898.822265625	117.4729080200195	-556.3095703125	874.77001953125	172.6893920898438	-640.1116943359375	1054.714111328125	132.8471221923828	-478.4312438964844	726.989501953125	123.4821243286133	-468.6625671386719	809.5254516601562	140.4084167480469	-534.0792236328125	802.16552734375	174.8470916748047	-526.4520874023438	1670.033325195312	-71.73673248291016	-329.6882934570312	1669.634887695312	-138.3581695556641	-399.7748107910156	1666.350463867188	-12.02852439880371	-440.8125610351562	1670.620361328125	-213.0209503173828	-500.9401550292969	919.7020263671875	-327.3357543945312	-617.4733276367188	927.7827758789062	36.89049530029297	-519.0662841796875	963.837158203125	6.54552698135376	-441.3337097167969	951.5781860351562	-259.7272644042969	-369.1886596679688	489.7870483398438	-262.4825744628906	-406.1212463378906	656.2926635742188	-295.4313354492188	-737.4911499023438	187.1015319824219	-382.2765502929688	-563.8587646484375	337.7919921875	-331.6353149414062	-593.5015258789062	54.85009765625	-300.4098205566406	-652.823974609375	97.87171936035156	-274.3449401855469	-650.1240234375	104.8157653808594	-380.1058044433594	-792.3699951171875	236.223876953125	-337.3735961914062	-503.2385559082031	492.9442749023438	-24.4023265838623	-557.369140625	775.8998413085938	39.59943771362305	-595.3817138671875	38.13554763793945	-115.0019989013672	-497.5426330566406	347.2045593261719	-51.36725234985352	-373.1392211914062	39.86101913452148	-82.89424896240234	-422.2201843261719	33.70980453491211	-141.3327941894531	-476.7516174316406	44.19507598876953	-55.58140182495117	-630.2083129882812	25.70947647094727	-181.7970581054688	-392.3212890625	710.5283203125	-353.7515563964844	
115	1.14	-699.0281372070312	997.7261352539062	-112.7113800048828	-658.3924560546875	996.3558959960938	-240.4112396240234	-668.773193359375	1102.871826171875	-176.8196563720703	-426.2083740234375	1273.410888671875	-118.150390625	-665.4916381835938	1227.964599609375	-178.4837188720703	-598.2470092773438	1498.428344726562	-151.7011871337891	-435.0131530761719	1384.690185546875	-122.0041961669922	-698.0824584960938	1381.451904296875	-83.72606658935547	-614.6337890625	1447.193725585938	-249.2048950195312	-498.2310791015625	1460.663330078125	-307.51806640625	-496.2290649414062	1334.228271484375	-387.1968078613281	-477.2012023925781	1113.10595703125	-409.5626525878906	-573.1728515625	1104.986450195312	-376.3935852050781	-389.0927734375	876.138427734375	-345.7210388183594	-419.8026123046875	850.6265258789062	-422.9544982910156	-452.7278747558594	1028.711547851562	-412.7578735351562	-410.9726257324219	791.3762817382812	-413.2254638671875	-367.0494689941406	799.1489868164062	-362.0358581542969	-579.161865234375	1459.4873046875	13.21768856048584	-615.2791748046875	1398.359375	77.34909057617188	-643.1110229492188	1111.30078125	126.6316909790039	-690.4288330078125	1092.208251953125	89.826171875	-489.301025390625	901.1419067382812	121.6884155273438	-546.8639526367188	876.6270141601562	176.9252166748047	-632.4078979492188	1055.660278320312	136.7343902587891	-467.6043090820312	729.5760498046875	128.1187744140625	-458.6731262207031	812.2279052734375	144.8958740234375	-523.9961547851562	804.2970581054688	179.2711181640625	-519.7205200195312	1670.635131835938	-68.994873046875	-322.6564636230469	1669.6865234375	-134.6975250244141	-393.2733154296875	1666.607421875	-8.709150314331055	-433.4248046875	1670.938354492188	-209.8966979980469	-492.4993591308594	920.9140014648438	-323.9661560058594	-612.2796020507812	927.76953125	39.48397445678711	-513.6026611328125	963.9274291992188	10.15875720977783	-434.2252197265625	952.5704345703125	-255.4318237304688	-353.0130615234375	493.8998413085938	-254.1825256347656	-393.0686340332031	659.29052734375	-289.4389953613281	-710.3230590820312	179.87646484375	-376.92236328125	-542.4790649414062	336.209716796875	-325.0434875488281	-562.38232421875	54.25193786621094	-292.2745056152344	-623.8729248046875	94.81075286865234	-267.314208984375	-619.7564086914062	101.269401550293	-373.0474853515625	-767.8541259765625	226.9614562988281	-333.1647338867188	-501.2804260253906	492.2997131347656	-23.21170997619629	-553.2278442382812	775.5472412109375	41.97533416748047	-595.3884887695312	38.17097091674805	-115.0757369995117	-496.3638305664062	346.6522827148438	-50.70960235595703	-373.1195068359375	39.84613418579102	-82.88716888427734	-422.2371826171875	33.67912292480469	-141.3513793945312	-476.7623901367188	44.19465255737305	-55.59757995605469	-630.19384765625	25.70302200317383	-181.8492889404297	-382.8763427734375	711.2593383789062	-348.7608032226562	
